<svg width="159" height="23" viewBox="0 0 159 23" fill="none" xmlns="http://www.w3.org/2000/svg">
<g clip-path="url(#clip0_303_14075)">
<path d="M32.1984 18.4V16.4389H33.7833V6.59487H32.1984V4.63373H35.8222L40.3129 10.8575L44.9554 4.63373H48.484V6.59487H46.8992V16.4389H48.484V18.4H43.257V16.4389H44.8802V7.8384L40.276 14.0438L35.8038 7.97027V16.4389H37.427V18.4H32.2H32.1984Z" fill="#04203E"/>
<path d="M49.4844 13.3078C49.4844 10.3653 51.844 8.0086 54.7866 8.0086C57.7292 8.0086 60.0888 10.3669 60.0888 13.3078C60.0888 16.2487 57.7292 18.607 54.7866 18.607C51.844 18.607 49.4844 16.2487 49.4844 13.3078ZM58.0146 13.3078C58.0146 11.4601 56.5617 9.96973 54.7881 9.96973C53.0146 9.96973 51.5801 11.4601 51.5801 13.3078C51.5801 15.1555 52.9762 16.6459 54.7881 16.6459C56.6 16.6459 58.0146 15.1555 58.0146 13.3078Z" fill="#04203E"/>
<path d="M65.8636 18.6085C64.7819 18.6085 63.8722 18.4199 63.1373 18.0427C62.4024 17.6655 61.8133 17.1059 61.3729 16.3637L63.2032 15.3272C63.5178 15.8056 63.8952 16.1751 64.3355 16.4404C64.7758 16.7041 65.3174 16.836 65.9587 16.836C66.6 16.836 67.1293 16.6949 67.4683 16.4113C67.8074 16.1291 67.9777 15.7918 67.9777 15.4023C67.9777 15.1754 67.9056 14.9914 67.7614 14.8457C67.6172 14.7016 67.4254 14.582 67.1861 14.4869C66.9467 14.3919 66.6736 14.3106 66.3652 14.2416C66.0569 14.1726 65.7332 14.1005 65.3941 14.0254C64.966 13.938 64.5411 13.8276 64.1207 13.6957C63.6988 13.5639 63.3183 13.3875 62.9792 13.1683C62.6402 12.949 62.3656 12.6653 62.1584 12.3188C61.9513 11.9738 61.847 11.5429 61.847 11.0262C61.847 10.6367 61.9375 10.2565 62.1201 9.8854C62.3027 9.51433 62.5635 9.18773 62.9025 8.90407C63.2416 8.62193 63.6543 8.39807 64.1391 8.234C64.6239 8.07147 65.167 7.98867 65.7715 7.98867C66.7273 7.98867 67.5389 8.1558 68.2063 8.48853C68.8737 8.82127 69.426 9.29047 69.8663 9.89307L68.1112 10.8928C67.8596 10.5156 67.5451 10.2197 67.1676 10.0065C66.7902 9.7934 66.3254 9.68607 65.7715 9.68607C65.1425 9.68607 64.6776 9.8118 64.3754 10.0633C64.0731 10.3147 63.9228 10.6229 63.9228 10.9879C63.9228 11.3896 64.1391 11.6733 64.5733 11.8358C65.0075 11.9999 65.6135 12.1624 66.3944 12.3265C66.8224 12.4139 67.2505 12.5243 67.677 12.6561C68.105 12.788 68.4917 12.9674 68.8369 13.1943C69.1821 13.4213 69.4659 13.7095 69.6868 14.0622C69.9062 14.4149 70.0167 14.8549 70.0167 15.3824C70.0167 15.7596 69.9323 16.1399 69.762 16.5232C69.5917 16.9065 69.337 17.2531 68.998 17.5597C68.6589 17.8679 68.2278 18.1194 67.7046 18.3141C67.183 18.5089 66.5693 18.607 65.8651 18.607L65.8636 18.6085Z" fill="#04203E"/>
<path d="M76.847 18.6085C76.1796 18.6085 75.5383 18.4828 74.9215 18.2313C74.3048 17.9799 73.7617 17.6211 73.2891 17.1565C72.8166 16.6919 72.4392 16.1322 72.1569 15.4775C71.8731 14.8243 71.7319 14.1005 71.7319 13.3078C71.7319 12.5151 71.87 11.7775 72.1477 11.1289C72.4238 10.4819 72.7982 9.92527 73.2707 9.45913C73.7433 8.99453 74.2894 8.63573 74.9123 8.38427C75.5352 8.1328 76.1857 8.00707 76.8654 8.00707C77.545 8.00707 78.1955 8.1512 78.8184 8.441C79.4413 8.7308 79.9476 9.1264 80.3373 9.62933V8.21407H82.3379V18.4H80.3373V16.9096C79.9353 17.4371 79.4214 17.8526 78.8 18.1547C78.1771 18.4567 77.5266 18.607 76.847 18.607V18.6085ZM77.1108 16.7409C77.5895 16.7409 78.0329 16.6505 78.441 16.468C78.8491 16.2855 79.202 16.0402 79.4981 15.732C79.7942 15.4238 80.0258 15.0589 80.1961 14.6387C80.3664 14.2171 80.4508 13.7678 80.4508 13.2909C80.4508 12.8141 80.3664 12.3832 80.1961 11.9615C80.0258 11.5399 79.7926 11.1765 79.4981 10.8683C79.202 10.5601 78.8506 10.3147 78.441 10.1323C78.0314 9.9498 77.588 9.85933 77.1108 9.85933C76.6337 9.85933 76.1888 9.94673 75.7807 10.1231C75.371 10.2994 75.0166 10.5417 74.7144 10.8499C74.4122 11.1581 74.1759 11.523 74.0071 11.9431C73.8368 12.3648 73.7525 12.8141 73.7525 13.2909C73.7525 13.7678 73.8368 14.2186 74.0071 14.6387C74.1774 15.0604 74.4122 15.4284 74.7144 15.7427C75.0166 16.0571 75.371 16.3024 75.7807 16.4787C76.1888 16.6551 76.6322 16.7425 77.1108 16.7425V16.7409Z" fill="#04203E"/>
<path d="M84.5073 18.4V16.4573H86.0553V10.1583H84.6024V8.2156H88.0927V16.4573H89.6407V18.4H84.5073ZM87.0172 3.65087C87.904 3.65087 88.5269 4.31173 88.5269 5.15967C88.5269 6.0076 87.904 6.66847 87.0172 6.66847C86.1305 6.66847 85.526 6.00913 85.526 5.15967C85.526 4.3102 86.1673 3.65087 87.0172 3.65087Z" fill="#04203E"/>
<path d="M96.132 18.6085C95.3771 18.6085 94.6729 18.4705 94.0178 18.193C93.3642 17.917 92.7966 17.5398 92.3194 17.0614C91.8408 16.583 91.4664 16.0233 91.1964 15.3824C90.9264 14.7415 90.7914 14.0499 90.7914 13.3078C90.7914 12.5657 90.9295 11.8557 91.2071 11.2148C91.4833 10.5739 91.8607 10.0142 92.3394 9.5358C92.8181 9.0574 93.3796 8.6848 94.0286 8.4134C94.676 8.14353 95.371 8.0086 96.1135 8.0086C96.6797 8.0086 97.2105 8.08373 97.7076 8.23553C98.2047 8.3858 98.6603 8.60047 99.0761 8.87647C99.4919 9.15247 99.8585 9.48367 100.181 9.867C100.501 10.2503 100.756 10.6689 100.945 11.1213L99.1145 11.914C98.8506 11.2853 98.4563 10.7947 97.9347 10.4435C97.413 10.0924 96.8055 9.91607 96.1135 9.91607C95.6349 9.91607 95.1946 10.0035 94.7926 10.1798C94.3891 10.3561 94.0408 10.5984 93.7447 10.9066C93.4486 11.2148 93.217 11.5767 93.0467 11.9907C92.8764 12.4062 92.792 12.8463 92.792 13.3109C92.792 13.7755 92.8764 14.2155 93.0467 14.6311C93.217 15.0466 93.4517 15.4069 93.7539 15.7151C94.0562 16.0233 94.4106 16.2656 94.8202 16.4419C95.2283 16.6183 95.6717 16.7057 96.1504 16.7057C96.8791 16.7057 97.4989 16.5079 98.0098 16.1123C98.5192 15.7167 98.8997 15.2229 99.1513 14.6311L101 15.4039C100.597 16.3469 99.9813 17.1166 99.1513 17.7146C98.3213 18.3126 97.3148 18.6101 96.132 18.6101V18.6085Z" fill="#04203E"/>
<path d="M9.20525 11.5L11.5066 13.8L13.8079 11.5L11.5066 9.2L9.20525 11.5Z" fill="#09203D"/>
<path d="M6.90333 13.8024L4.60236 16.1021L6.90333 18.4017L9.20429 16.1021L6.90333 13.8024Z" fill="#09203D"/>
<path d="M16.1096 13.8014L13.8086 16.1011L16.1096 18.4007L18.4105 16.1011L16.1096 13.8014Z" fill="#09203D"/>
<path d="M11.5051 18.4022L9.20375 20.7015L11.5043 23.0015L13.8057 20.7023L11.5051 18.4022Z" fill="#09203D"/>
<path d="M11.5066 0L0 11.5L2.30131 13.8L11.5066 4.6L20.7118 13.8L23.0131 11.5L11.5066 0Z" fill="#09203D"/>
</g>
<defs>
<clipPath id="clip0_303_14075">
<rect width="101" height="23" fill="white"/>
</clipPath>
</defs>
</svg>
